<svg width="42" height="56" viewBox="0 0 42 56" fill="none" xmlns="http://www.w3.org/2000/svg">
<circle cx="21" cy="20" r="20" fill="#D9D9D9"/>
<g clip-path="url(#clip0_16_289)">
<path d="M35.9842 20.2807C35.9842 19.0516 35.8821 18.1547 35.6613 17.2245H21.2988V22.772H29.7292C29.5593 24.1507 28.6415 26.2268 26.6018 27.622L26.5732 27.8077L31.1144 31.2454L31.429 31.2761C34.3184 28.6684 35.9842 24.8316 35.9842 20.2807Z" fill="#4285F4"/>
<path d="M21.2988 34.897C25.429 34.897 28.8964 33.5681 31.429 31.2761L26.6018 27.622C25.3101 28.5023 23.5764 29.1168 21.2988 29.1168C17.2536 29.1168 13.8202 26.5092 12.5963 22.905L12.4169 22.9199L7.69499 26.4909L7.63324 26.6586C10.1488 31.5418 15.3158 34.897 21.2988 34.897Z" fill="#34A853"/>
<path d="M12.5963 22.905C12.2734 21.9748 12.0865 20.9782 12.0865 19.9485C12.0865 18.9186 12.2734 17.9221 12.5793 16.992L12.5708 16.7939L7.78968 13.1655L7.63325 13.2382C6.59649 15.2646 6.00159 17.5401 6.00159 19.9485C6.00159 22.3568 6.59649 24.6323 7.63325 26.6586L12.5963 22.905Z" fill="#FBBC05"/>
<path d="M21.2988 10.78C24.1713 10.78 26.1089 11.9925 27.2137 13.0058L31.5309 8.8866C28.8795 6.47824 25.429 5 21.2988 5C15.3158 5 10.1488 8.35508 7.63324 13.2382L12.5793 16.992C13.8202 13.3877 17.2536 10.78 21.2988 10.78Z" fill="#EB4335"/>
</g>
<path d="M6.60405 47.0938C6.54439 46.8864 6.46058 46.7031 6.35263 46.544C6.24467 46.3821 6.11257 46.2457 5.95632 46.1349C5.80291 46.0213 5.62678 45.9347 5.42791 45.875C5.23189 45.8153 5.01456 45.7855 4.77592 45.7855C4.3299 45.7855 3.93786 45.8963 3.59979 46.1179C3.26456 46.3395 3.0032 46.6619 2.8157 47.0852C2.6282 47.5057 2.53445 48.0199 2.53445 48.6278C2.53445 49.2358 2.62678 49.7528 2.81143 50.179C2.99609 50.6051 3.25746 50.9304 3.59553 51.1548C3.93359 51.3764 4.33274 51.4872 4.79297 51.4872C5.21058 51.4872 5.56712 51.4134 5.86257 51.2656C6.16087 51.1151 6.38814 50.9034 6.54439 50.6307C6.70348 50.358 6.78303 50.0355 6.78303 49.6634L7.15803 49.7188H4.90803V48.3295H8.56001V49.429C8.56001 50.196 8.39808 50.8551 8.07422 51.4062C7.75036 51.9545 7.30433 52.3778 6.73615 52.6761C6.16797 52.9716 5.5174 53.1193 4.78445 53.1193C3.96626 53.1193 3.24751 52.9389 2.6282 52.5781C2.00888 52.2145 1.52592 51.6989 1.17933 51.0312C0.835582 50.3608 0.663707 49.5653 0.663707 48.6449C0.663707 47.9375 0.76598 47.3068 0.970526 46.7528C1.17791 46.196 1.46768 45.7244 1.83984 45.3381C2.212 44.9517 2.64524 44.6577 3.13956 44.456C3.63388 44.2543 4.16939 44.1534 4.74609 44.1534C5.24041 44.1534 5.70064 44.2259 6.12678 44.3707C6.55291 44.5128 6.93075 44.7145 7.2603 44.9759C7.59268 45.2372 7.86399 45.5483 8.07422 45.9091C8.28445 46.267 8.41939 46.6619 8.47905 47.0938H6.60405ZM12.8693 53.1278C12.2074 53.1278 11.6349 52.9872 11.152 52.706C10.6719 52.4219 10.3011 52.027 10.0398 51.5213C9.77841 51.0128 9.64773 50.4233 9.64773 49.7528C9.64773 49.0767 9.77841 48.4858 10.0398 47.9801C10.3011 47.4716 10.6719 47.0767 11.152 46.7955C11.6349 46.5114 12.2074 46.3693 12.8693 46.3693C13.5312 46.3693 14.1023 46.5114 14.5824 46.7955C15.0653 47.0767 15.4375 47.4716 15.6989 47.9801C15.9602 48.4858 16.0909 49.0767 16.0909 49.7528C16.0909 50.4233 15.9602 51.0128 15.6989 51.5213C15.4375 52.027 15.0653 52.4219 14.5824 52.706C14.1023 52.9872 13.5312 53.1278 12.8693 53.1278ZM12.8778 51.7216C13.179 51.7216 13.4304 51.6364 13.6321 51.4659C13.8338 51.2926 13.9858 51.0568 14.0881 50.7585C14.1932 50.4602 14.2457 50.1207 14.2457 49.7401C14.2457 49.3594 14.1932 49.0199 14.0881 48.7216C13.9858 48.4233 13.8338 48.1875 13.6321 48.0142C13.4304 47.8409 13.179 47.7543 12.8778 47.7543C12.5739 47.7543 12.3182 47.8409 12.1108 48.0142C11.9063 48.1875 11.7514 48.4233 11.6463 48.7216C11.544 49.0199 11.4929 49.3594 11.4929 49.7401C11.4929 50.1207 11.544 50.4602 11.6463 50.7585C11.7514 51.0568 11.9063 51.2926 12.1108 51.4659C12.3182 51.6364 12.5739 51.7216 12.8778 51.7216ZM20.2287 53.1278C19.5668 53.1278 18.9943 52.9872 18.5114 52.706C18.0313 52.4219 17.6605 52.027 17.3991 51.5213C17.1378 51.0128 17.0071 50.4233 17.0071 49.7528C17.0071 49.0767 17.1378 48.4858 17.3991 47.9801C17.6605 47.4716 18.0313 47.0767 18.5114 46.7955C18.9943 46.5114 19.5668 46.3693 20.2287 46.3693C20.8906 46.3693 21.4616 46.5114 21.9418 46.7955C22.4247 47.0767 22.7969 47.4716 23.0582 47.9801C23.3196 48.4858 23.4503 49.0767 23.4503 49.7528C23.4503 50.4233 23.3196 51.0128 23.0582 51.5213C22.7969 52.027 22.4247 52.4219 21.9418 52.706C21.4616 52.9872 20.8906 53.1278 20.2287 53.1278ZM20.2372 51.7216C20.5384 51.7216 20.7898 51.6364 20.9915 51.4659C21.1932 51.2926 21.3452 51.0568 21.4474 50.7585C21.5526 50.4602 21.6051 50.1207 21.6051 49.7401C21.6051 49.3594 21.5526 49.0199 21.4474 48.7216C21.3452 48.4233 21.1932 48.1875 20.9915 48.0142C20.7898 47.8409 20.5384 47.7543 20.2372 47.7543C19.9332 47.7543 19.6776 47.8409 19.4702 48.0142C19.2656 48.1875 19.1108 48.4233 19.0057 48.7216C18.9034 49.0199 18.8523 49.3594 18.8523 49.7401C18.8523 50.1207 18.9034 50.4602 19.0057 50.7585C19.1108 51.0568 19.2656 51.2926 19.4702 51.4659C19.6776 51.6364 19.9332 51.7216 20.2372 51.7216ZM27.5795 55.5909C26.9915 55.5909 26.4872 55.5099 26.0668 55.348C25.6491 55.1889 25.3168 54.9716 25.0696 54.696C24.8224 54.4205 24.6619 54.1108 24.5881 53.767L26.267 53.5412C26.3182 53.6719 26.3991 53.794 26.5099 53.9077C26.6207 54.0213 26.767 54.1122 26.9489 54.1804C27.1335 54.2514 27.358 54.2869 27.6222 54.2869C28.017 54.2869 28.3423 54.1903 28.598 53.9972C28.8565 53.8068 28.9858 53.4872 28.9858 53.0384V51.8409H28.9091C28.8295 52.0227 28.7102 52.1946 28.5511 52.3565C28.392 52.5185 28.1875 52.6506 27.9375 52.7528C27.6875 52.8551 27.3892 52.9062 27.0426 52.9062C26.5511 52.9062 26.1037 52.7926 25.7003 52.5653C25.2997 52.3352 24.9801 51.9844 24.7415 51.5128C24.5057 51.0384 24.3878 50.4389 24.3878 49.7145C24.3878 48.973 24.5085 48.3537 24.75 47.8565C24.9915 47.3594 25.3125 46.9872 25.7131 46.7401C26.1165 46.4929 26.5582 46.3693 27.0384 46.3693C27.4048 46.3693 27.7116 46.4318 27.9588 46.5568C28.206 46.679 28.4048 46.8324 28.5554 47.017C28.7088 47.1989 28.8267 47.3778 28.9091 47.554H28.9773V46.4545H30.7798V53.0639C30.7798 53.6207 30.6435 54.0866 30.3707 54.4616C30.098 54.8366 29.7202 55.1179 29.2372 55.3054C28.7571 55.4957 28.2045 55.5909 27.5795 55.5909ZM27.6179 51.5426C27.9105 51.5426 28.1577 51.4702 28.3594 51.3253C28.5639 51.1776 28.7202 50.9673 28.8281 50.6946C28.9389 50.419 28.9943 50.0895 28.9943 49.706C28.9943 49.3224 28.9403 48.9901 28.8324 48.7088C28.7244 48.4247 28.5682 48.2045 28.3636 48.0483C28.1591 47.892 27.9105 47.8139 27.6179 47.8139C27.3196 47.8139 27.0682 47.8949 26.8636 48.0568C26.6591 48.2159 26.5043 48.4375 26.3991 48.7216C26.294 49.0057 26.2415 49.3338 26.2415 49.706C26.2415 50.0838 26.294 50.4105 26.3991 50.6861C26.5071 50.9588 26.6619 51.1705 26.8636 51.321C27.0682 51.4687 27.3196 51.5426 27.6179 51.5426ZM34.0398 44.2727V53H32.2244V44.2727H34.0398ZM38.4769 53.1278C37.8036 53.1278 37.2241 52.9915 36.7383 52.7188C36.2553 52.4432 35.8832 52.054 35.6218 51.5511C35.3604 51.0455 35.2298 50.4474 35.2298 49.7571C35.2298 49.0838 35.3604 48.4929 35.6218 47.9844C35.8832 47.4759 36.2511 47.0795 36.7255 46.7955C37.2028 46.5114 37.7624 46.3693 38.4045 46.3693C38.8363 46.3693 39.2383 46.4389 39.6104 46.5781C39.9854 46.7145 40.3121 46.9205 40.5906 47.196C40.8718 47.4716 41.0906 47.8182 41.2468 48.2358C41.4031 48.6506 41.4812 49.1364 41.4812 49.6932V50.1918H35.9542V49.0668H39.7724C39.7724 48.8054 39.7156 48.5739 39.6019 48.3722C39.4883 48.1705 39.3306 48.0128 39.1289 47.8991C38.93 47.7827 38.6985 47.7244 38.4343 47.7244C38.1587 47.7244 37.9144 47.7884 37.7013 47.9162C37.4911 48.0412 37.3263 48.2102 37.207 48.4233C37.0877 48.6335 37.0266 48.8679 37.0238 49.1264V50.196C37.0238 50.5199 37.0835 50.7997 37.2028 51.0355C37.3249 51.2713 37.4968 51.4531 37.7184 51.581C37.94 51.7088 38.2028 51.7727 38.5067 51.7727C38.7085 51.7727 38.8931 51.7443 39.0607 51.6875C39.2283 51.6307 39.3718 51.5455 39.4911 51.4318C39.6104 51.3182 39.7013 51.179 39.7638 51.0142L41.4428 51.125C41.3576 51.5284 41.1829 51.8807 40.9187 52.1818C40.6573 52.4801 40.3192 52.7131 39.9045 52.8807C39.4925 53.0455 39.0167 53.1278 38.4769 53.1278Z" fill="white"/>
<defs>
<clipPath id="clip0_16_289">
<rect width="30" height="30" fill="white" transform="translate(6 5)"/>
</clipPath>
</defs>
</svg>
